<svg width="166" height="38" viewBox="0 0 166 38" fill="none" xmlns="http://www.w3.org/2000/svg">
<path d="M40.197 9.0293H44.004V27.5079H40.197V9.0293Z" fill="#1E1B1B"/>
<path d="M46.1356 21.1774C46.1356 19.848 46.5273 18.5484 47.2611 17.4436C47.9948 16.3387 49.0376 15.4782 50.2571 14.9712C51.4767 14.4642 52.8182 14.3335 54.1115 14.5957C55.4049 14.8579 56.5919 15.5011 57.522 16.4439C58.4522 17.3866 59.0837 18.5865 59.3365 19.8913C59.5892 21.1962 59.4518 22.5473 58.9417 23.7733C58.4317 24.9994 57.5718 26.0453 56.4713 26.7783C55.3707 27.5114 54.0789 27.8987 52.7597 27.8911C51.8847 27.898 51.0171 27.7288 50.2078 27.3933C49.3986 27.0579 48.664 26.563 48.047 25.9377C47.43 25.3124 46.9432 24.5692 46.6149 23.7518C46.2867 22.9344 46.1238 22.0592 46.1356 21.1774V21.1774ZM55.6783 21.1774C55.6633 20.6043 55.481 20.0483 55.1541 19.579C54.8272 19.1097 54.3703 18.748 53.8405 18.539C53.3107 18.3301 52.7315 18.2832 52.1754 18.4042C51.6192 18.5252 51.1109 18.8088 50.7138 19.2194C50.3168 19.6301 50.0487 20.1496 49.9431 20.713C49.8375 21.2764 49.899 21.8586 50.1201 22.3869C50.3411 22.9152 50.7118 23.3662 51.1858 23.6833C51.6598 24.0004 52.2161 24.1696 52.785 24.1698C53.1724 24.1774 53.5572 24.1044 53.9153 23.9554C54.2734 23.8064 54.5971 23.5845 54.8663 23.3036C55.1355 23.0228 55.3442 22.689 55.4796 22.3232C55.6149 21.9573 55.6739 21.5673 55.6529 21.1774H55.6783Z" fill="#1E1B1B"/>
<path d="M74.4466 14.8479V26.8813C74.4466 31.1269 71.1473 32.93 67.8099 32.93C66.6327 33.0274 65.452 32.7917 64.4005 32.2495C63.349 31.7073 62.4686 30.88 61.8584 29.8609L65.0689 27.9939C65.3291 28.5225 65.7429 28.9586 66.2553 29.2442C66.7676 29.5298 67.3542 29.6512 67.9368 29.5924C68.3079 29.6385 68.6846 29.6013 69.0398 29.4836C69.3951 29.3659 69.7201 29.1706 69.9917 28.9115C70.2633 28.6525 70.4747 28.3362 70.6109 27.9852C70.747 27.6343 70.8045 27.2573 70.7793 26.8813V25.7176C70.3363 26.2589 69.7742 26.6887 69.1376 26.9728C68.501 27.257 67.8074 27.3876 67.112 27.3545C65.4292 27.3545 63.8154 26.6808 62.6255 25.4817C61.4356 24.2826 60.7671 22.6563 60.7671 20.9605C60.7671 19.2647 61.4356 17.6384 62.6255 16.4393C63.8154 15.2402 65.4292 14.5666 67.112 14.5666C67.8074 14.5334 68.501 14.6641 69.1376 14.9482C69.7742 15.2324 70.3363 15.6621 70.7793 16.2034V14.9246L74.4466 14.8479ZM70.7793 20.9222C70.8046 20.3103 70.6477 19.7049 70.3289 19.1836C70.01 18.6624 69.5437 18.2492 68.9899 17.9972C68.4361 17.7451 67.8201 17.6658 67.2212 17.7694C66.6223 17.873 66.0679 18.1547 65.6292 18.5784C65.1905 19.0021 64.8876 19.5484 64.7594 20.1469C64.6312 20.7455 64.6837 21.369 64.91 21.9373C65.1363 22.5056 65.5261 22.9927 66.0293 23.3359C66.5325 23.6792 67.1261 23.8629 67.7338 23.8634C68.1303 23.8922 68.5283 23.8368 68.9023 23.7009C69.2763 23.565 69.6178 23.3516 69.9048 23.0744C70.1918 22.7972 70.4179 22.4625 70.5685 22.0918C70.7192 21.721 70.791 21.3226 70.7793 20.9222V20.9222Z" fill="#1E1B1B"/>
<path d="M76.591 21.1775C76.591 19.8491 76.9821 18.5506 77.7147 17.4463C78.4473 16.342 79.4885 15.4815 80.7066 14.9737C81.9247 14.4659 83.2649 14.3337 84.5575 14.5938C85.8502 14.8539 87.0373 15.4946 87.9685 16.4348C88.8997 17.375 89.5332 18.5724 89.7888 19.8756C90.0444 21.1788 89.9107 22.5291 89.4045 23.7556C88.8983 24.9822 88.0424 26.0298 86.9452 26.766C85.8479 27.5021 84.5586 27.8937 83.2404 27.8912C82.3638 27.8998 81.4943 27.7319 80.6829 27.3974C79.8714 27.0628 79.1344 26.5684 78.5151 25.9431C77.8958 25.3178 77.4066 24.5742 77.0762 23.7559C76.7458 22.9375 76.5808 22.0609 76.591 21.1775ZM86.1337 21.1775C86.1187 20.6038 85.9361 20.0474 85.6086 19.5778C85.2812 19.1083 84.8235 18.7466 84.2929 18.538C83.7624 18.3294 83.1826 18.2833 82.6261 18.4053C82.0696 18.5274 81.5613 18.8122 81.1648 19.2241C80.7683 19.6361 80.5012 20.1567 80.397 20.721C80.2928 21.2852 80.3562 21.8678 80.5792 22.3959C80.8022 22.924 81.1748 23.374 81.6505 23.6896C82.1262 24.0051 82.6837 24.1722 83.2531 24.1699C83.6405 24.1775 84.0253 24.1045 84.3834 23.9555C84.7415 23.8065 85.0652 23.5846 85.3344 23.3037C85.6036 23.0229 85.8123 22.6891 85.9477 22.3233C86.083 21.9574 86.142 21.5674 86.121 21.1775H86.1337Z" fill="#1E1B1B"/>
<path d="M91.6538 11.4589C91.6538 11.0087 91.7863 10.5686 92.0345 10.1943C92.2827 9.81992 92.6354 9.52817 93.0482 9.35589C93.4609 9.1836 93.9151 9.13853 94.3532 9.22636C94.7914 9.31419 95.1939 9.53098 95.5098 9.84932C95.8257 10.1677 96.0408 10.5732 96.1279 11.0148C96.2151 11.4563 96.1704 11.914 95.9994 12.33C95.8284 12.7459 95.5389 13.1014 95.1675 13.3515C94.796 13.6016 94.3593 13.7351 93.9126 13.7351C93.3156 13.7285 92.7449 13.4865 92.3227 13.0611C91.9005 12.6356 91.6604 12.0605 91.6538 11.4589V11.4589ZM92.0218 14.8477H95.8287V27.5077H92.0218V14.8477Z" fill="#1E1B1B"/>
<path d="M112.122 21.1777C112.165 22.0196 112.042 22.8618 111.761 23.6557C111.479 24.4495 111.044 25.1795 110.482 25.8035C109.919 26.4274 109.24 26.9331 108.483 27.2915C107.725 27.6498 106.905 27.8536 106.069 27.8913C105.36 27.9389 104.65 27.8244 103.99 27.5565C103.331 27.2886 102.741 26.8741 102.262 26.344V32.5973H98.4556V14.8476H102.262V16.0369C102.741 15.5084 103.332 15.0958 103.991 14.8301C104.651 14.5643 105.361 14.4523 106.069 14.5024C106.902 14.5401 107.719 14.7428 108.473 15.0987C109.228 15.4546 109.906 15.9568 110.468 16.5767C111.03 17.1965 111.465 17.9219 111.749 18.7113C112.033 19.5008 112.16 20.3388 112.122 21.1777V21.1777ZM108.316 21.1777C108.301 20.5837 108.112 20.0075 107.773 19.5211C107.435 19.0347 106.961 18.6599 106.412 18.4436C105.863 18.2273 105.263 18.1791 104.687 18.3051C104.11 18.4311 103.584 18.7257 103.173 19.1519C102.762 19.5782 102.486 20.1171 102.378 20.7012C102.27 21.2852 102.335 21.8884 102.566 22.4352C102.796 22.982 103.182 23.448 103.674 23.7748C104.167 24.1016 104.744 24.2747 105.333 24.2723C105.737 24.2896 106.14 24.2207 106.516 24.07C106.891 23.9194 107.231 23.6905 107.512 23.3982C107.794 23.106 108.011 22.7572 108.15 22.3745C108.288 21.9918 108.344 21.5839 108.316 21.1777V21.1777Z" fill="#1E1B1B"/>
<path d="M123.708 23.7099C123.708 26.6256 121.17 27.866 118.48 27.866C117.383 27.9655 116.281 27.7312 115.317 27.1932C114.354 26.6552 113.572 25.8383 113.074 24.8481L116.348 22.981C116.478 23.4373 116.759 23.8349 117.145 24.1073C117.531 24.3796 117.998 24.5102 118.467 24.4772C119.368 24.4772 119.825 24.1959 119.825 23.6844C119.825 22.2905 113.645 23.0322 113.645 18.6459C113.645 15.8837 115.955 14.5026 118.569 14.5026C119.563 14.4578 120.55 14.685 121.426 15.1601C122.301 15.6351 123.033 16.3404 123.543 17.2009L120.269 18.94C120.125 18.6101 119.888 18.3295 119.589 18.1321C119.289 17.9346 118.939 17.8288 118.582 17.8275C117.922 17.8275 117.528 18.0833 117.528 18.5308C117.528 19.9887 123.708 19.0296 123.708 23.7099Z" fill="#1E1B1B"/>
<path d="M137.502 14.8477V27.5077H133.695V26.3184C133.263 26.8449 132.713 27.2615 132.092 27.5347C131.47 27.8079 130.794 27.9301 130.117 27.8913C127.579 27.8913 125.409 26.0627 125.409 22.6483V14.8477H129.216V22.0728C129.186 22.3749 129.221 22.6799 129.32 22.9668C129.418 23.2537 129.577 23.5156 129.786 23.7345C129.995 23.9533 130.248 24.1239 130.529 24.2345C130.809 24.345 131.11 24.3928 131.411 24.3747C132.781 24.3747 133.746 23.5562 133.746 21.8171V14.8477H137.502Z" fill="#1E1B1B"/>
<path d="M159.074 19.7325V27.5076H155.267V20.065C155.267 18.7862 154.671 17.9934 153.465 17.9934C152.26 17.9934 151.498 18.8757 151.498 20.3719V27.5076H147.692V20.065C147.692 18.7862 147.095 17.9934 145.89 17.9934C144.684 17.9934 143.923 18.8757 143.923 20.3719V27.5076H140.116V14.8475H143.923V16.0112C144.317 15.4971 144.832 15.09 145.421 14.8265C146.01 14.5631 146.655 14.4517 147.298 14.5023C147.942 14.4684 148.583 14.6039 149.16 14.8953C149.736 15.1868 150.227 15.6242 150.585 16.1647C151.003 15.6 151.556 15.1514 152.193 14.8607C152.83 14.57 153.53 14.4466 154.227 14.5023C157.196 14.5023 159.074 16.5739 159.074 19.7325Z" fill="#1E1B1B"/>
<path d="M17.5201 5.7044V0.269531H0.515869V37.6103H17.5201V32.1754C14.0368 32.1754 10.6962 30.781 8.23307 28.2988C5.76999 25.8167 4.38625 22.4502 4.38625 18.9399C4.38625 15.4296 5.76999 12.0631 8.23307 9.581C10.6962 7.09886 14.0368 5.7044 17.5201 5.7044V5.7044Z" fill="#1E1B1B"/>
<path d="M17.5203 5.7041V32.1751C21.0036 32.1751 24.3442 30.7807 26.8073 28.2985C29.2704 25.8164 30.6542 22.4499 30.6542 18.9396C30.6542 15.4293 29.2704 12.0628 26.8073 9.58069C24.3442 7.09855 21.0036 5.7041 17.5203 5.7041V5.7041Z" fill="#1E1B1B"/>
<path d="M162.272 14.7707C163.814 14.7707 165.064 13.5112 165.064 11.9574C165.064 10.4036 163.814 9.14404 162.272 9.14404C160.731 9.14404 159.481 10.4036 159.481 11.9574C159.481 13.5112 160.731 14.7707 162.272 14.7707Z" fill="#1E1B1B"/>
</svg>
