<svg width="149" height="30" viewBox="0 0 149 30" fill="none" xmlns="http://www.w3.org/2000/svg">
<path d="M48.0815 24.2117C47.3308 24.2521 46.5883 24.04 45.9737 23.6094C45.7169 23.4202 45.5103 23.1717 45.3717 22.8853C45.2332 22.599 45.1669 22.2834 45.1785 21.9658V10.3351C45.1724 10.2858 45.1776 10.2359 45.1938 10.1889C45.2101 10.142 45.2369 10.0994 45.2721 10.0643C45.3074 10.0292 45.3503 10.0026 45.3975 9.98646C45.4447 9.97033 45.495 9.96512 45.5446 9.97123H47.665C47.9048 9.97123 48.0184 10.0967 48.0184 10.3351V21.0625C48.0184 21.5392 48.233 21.7776 48.6748 21.7776C48.862 21.7853 49.0494 21.7641 49.2301 21.7149C49.4826 21.7149 49.6214 21.7902 49.634 22.016L49.8234 23.5843C49.8325 23.6301 49.8316 23.6772 49.8208 23.7226C49.8101 23.7679 49.7896 23.8105 49.7609 23.8473C49.7322 23.8842 49.6959 23.9145 49.6544 23.9362C49.6129 23.9579 49.5673 23.9706 49.5204 23.9733C49.056 24.1258 48.5707 24.2062 48.0815 24.2117V24.2117Z" fill="#1E1B1B"/>
<path d="M60.0094 22.8691C58.9439 23.7442 57.6049 24.2229 56.2228 24.2229C54.8407 24.2229 53.5017 23.7442 52.4362 22.8691C51.4997 21.9294 50.9744 20.66 50.9744 19.3372C50.9744 18.0145 51.4997 16.7451 52.4362 15.8054C53.5038 14.9348 54.842 14.459 56.2228 14.459C57.6037 14.459 58.9418 14.9348 60.0094 15.8054C60.9243 16.7538 61.4351 18.017 61.4351 19.331C61.4351 20.645 60.9243 21.9082 60.0094 22.8566V22.8691ZM54.4305 21.213C54.925 21.6582 55.5683 21.9048 56.2354 21.9048C56.9026 21.9048 57.5459 21.6582 58.0404 21.213C58.4879 20.7015 58.7343 20.0465 58.7343 19.3686C58.7343 18.6908 58.4879 18.0357 58.0404 17.5243C57.5459 17.079 56.9026 16.8324 56.2354 16.8324C55.5683 16.8324 54.925 17.079 54.4305 17.5243C53.983 18.0357 53.7365 18.6908 53.7365 19.3686C53.7365 20.0465 53.983 20.7015 54.4305 21.213Z" fill="#1E1B1B"/>
<path d="M73.1108 14.7761C73.3507 14.7761 73.4642 14.9015 73.4642 15.1399V24.1359C73.4863 24.743 73.372 25.3475 73.1297 25.9052C72.8873 26.463 72.523 26.9601 72.0632 27.3604C71.0426 28.2254 69.7302 28.6737 68.3903 28.615C67.18 28.6573 65.9859 28.3288 64.9697 27.674C64.5358 27.3908 64.1651 27.0218 63.8806 26.5902C63.5962 26.1585 63.4041 25.6733 63.3162 25.1647C63.3162 24.9138 63.3162 24.8008 63.657 24.8008H65.7775C65.8675 24.8039 65.9548 24.8327 66.0287 24.8839C66.1026 24.9352 66.16 25.0065 66.194 25.0894C66.3316 25.4705 66.6057 25.7877 66.964 25.9802C67.4006 26.2041 67.8864 26.3163 68.3776 26.3064C68.674 26.3226 68.9706 26.2798 69.2502 26.1808C69.5297 26.0817 69.7866 25.9282 70.0059 25.7293C70.2061 25.5212 70.3619 25.275 70.4639 25.0055C70.5658 24.7359 70.6118 24.4486 70.5991 24.161V23.3705C69.8399 23.9256 68.9158 24.2127 67.9737 24.1861C67.3144 24.2099 66.657 24.101 66.041 23.866C65.425 23.631 64.8631 23.2747 64.3891 22.8185C63.4791 21.8827 62.9705 20.632 62.9705 19.3305C62.9705 18.029 63.4791 16.7783 64.3891 15.8425C64.8654 15.3903 65.428 15.0375 66.0436 14.8047C66.6592 14.572 67.3155 14.4642 67.9737 14.4875C68.9431 14.4621 69.892 14.7676 70.6622 15.3532V15.1525C70.6564 15.1044 70.6614 15.0556 70.677 15.0097C70.6925 14.9638 70.7181 14.9219 70.7519 14.8871C70.7858 14.8522 70.827 14.8253 70.8726 14.8083C70.9182 14.7913 70.9671 14.7845 71.0156 14.7886L73.1108 14.7761ZM68.2135 21.9528C68.5387 21.9628 68.8621 21.9016 69.1609 21.7737C69.4597 21.6458 69.7266 21.4542 69.9427 21.2125C70.3624 20.6738 70.5901 20.0118 70.5901 19.3305C70.5901 18.6492 70.3624 17.9872 69.9427 17.4485C69.7274 17.21 69.4621 17.0213 69.1656 16.8956C68.869 16.7699 68.5484 16.7102 68.2262 16.7208C67.8972 16.7105 67.57 16.7714 67.2671 16.8992C66.9642 17.027 66.6928 17.2187 66.4717 17.461C66.0068 17.9763 65.7624 18.6515 65.7901 19.343C65.7674 20.0279 66.0064 20.6958 66.4591 21.2125C66.6807 21.4542 66.9522 21.6454 67.255 21.7732C67.5578 21.9009 67.8847 21.9622 68.2135 21.9528V21.9528Z" fill="#1E1B1B"/>
<path d="M84.357 22.8689C83.2894 23.7395 81.9513 24.2153 80.5704 24.2153C79.1896 24.2153 77.8514 23.7395 76.7838 22.8689C75.8681 21.9183 75.3569 20.6531 75.3569 19.337C75.3569 18.0209 75.8681 16.7556 76.7838 15.8051C77.8524 14.9368 79.1902 14.4624 80.5704 14.4624C81.9506 14.4624 83.2884 14.9368 84.357 15.8051C85.2719 16.7535 85.7827 18.0167 85.7827 19.3307C85.7827 20.6447 85.2719 21.9079 84.357 22.8563V22.8689ZM78.7655 21.2127C79.0075 21.4415 79.2927 21.6204 79.6047 21.7388C79.9167 21.8573 80.2492 21.913 80.583 21.9028C80.9147 21.9113 81.2449 21.8548 81.5546 21.7364C81.8643 21.618 82.1475 21.44 82.388 21.2127C82.8282 20.6978 83.0699 20.0441 83.0699 19.3684C83.0699 18.6926 82.8282 18.0389 82.388 17.524C82.1475 17.2967 81.8643 17.1188 81.5546 17.0004C81.2449 16.8819 80.9147 16.8254 80.583 16.8339C80.2492 16.8237 79.9167 16.8795 79.6047 16.9979C79.2927 17.1164 79.0075 17.2952 78.7655 17.524C78.3253 18.0389 78.0836 18.6926 78.0836 19.3684C78.0836 20.0441 78.3253 20.6978 78.7655 21.2127V21.2127Z" fill="#1E1B1B"/>
<path d="M90.3398 12.6436C90.0061 12.9339 89.5778 13.0939 89.1344 13.0939C88.691 13.0939 88.2626 12.9339 87.929 12.6436C87.7777 12.5017 87.6572 12.3306 87.5748 12.1407C87.4924 11.9508 87.45 11.7463 87.45 11.5395C87.45 11.3327 87.4924 11.1281 87.5748 10.9383C87.6572 10.7484 87.7777 10.5773 87.929 10.4354C88.2661 10.1523 88.6931 9.99707 89.1344 9.99707C89.5756 9.99707 90.0027 10.1523 90.3398 10.4354C90.491 10.5773 90.6116 10.7484 90.6939 10.9383C90.7763 11.1281 90.8188 11.3327 90.8188 11.5395C90.8188 11.7463 90.7763 11.9508 90.6939 12.1407C90.6116 12.3306 90.491 12.5017 90.3398 12.6436V12.6436ZM90.6048 24.2116C89.8545 24.2482 89.1132 24.0364 88.497 23.6094C88.2441 23.4173 88.0411 23.168 87.9049 22.882C87.7688 22.5961 87.7035 22.2819 87.7144 21.9658V15.1404C87.7083 15.0911 87.7135 15.0412 87.7297 14.9942C87.746 14.9473 87.7727 14.9047 87.808 14.8696C87.8433 14.8345 87.8862 14.8079 87.9334 14.7918C87.9806 14.7756 88.0309 14.7704 88.0804 14.7765H90.2009C90.4407 14.7765 90.5543 14.902 90.5543 15.1404V21.0624C90.5543 21.5392 90.7689 21.7776 91.1981 21.7776C91.3895 21.7844 91.5808 21.7633 91.766 21.7148C92.0185 21.7148 92.1573 21.7901 92.1699 22.0159L92.3593 23.5843C92.3684 23.63 92.3675 23.6771 92.3567 23.7225C92.346 23.7679 92.3255 23.8104 92.2968 23.8473C92.2681 23.8841 92.2318 23.9144 92.1903 23.9362C92.1488 23.9579 92.1032 23.9705 92.0563 23.9732C91.5878 24.1266 91.0981 24.207 90.6048 24.2116V24.2116Z" fill="#1E1B1B"/>
<path d="M100.16 14.4754C100.822 14.4493 101.483 14.5559 102.103 14.7886C102.723 15.0214 103.29 15.3757 103.77 15.8304C104.662 16.7826 105.159 18.0357 105.159 19.3372C105.159 20.6387 104.662 21.8918 103.77 22.844C103.292 23.3027 102.726 23.6604 102.106 23.8955C101.485 24.1306 100.823 24.2381 100.16 24.2115C99.2147 24.2324 98.2885 23.9461 97.522 23.396V27.9254C97.522 28.1637 97.3957 28.2767 97.1559 28.2767H95.0354C94.9871 28.2857 94.9372 28.2828 94.8902 28.2683C94.8432 28.2538 94.8004 28.2282 94.7656 28.1936C94.7308 28.159 94.705 28.1165 94.6904 28.0697C94.6759 28.023 94.673 27.9735 94.682 27.9254V17.6371C94.6969 17.5365 94.6879 17.4338 94.6557 17.3372C94.6235 17.2407 94.5691 17.1529 94.4967 17.081C94.4244 17.0091 94.3361 16.955 94.239 16.923C94.1419 16.891 94.0386 16.8821 93.9373 16.8969H93.5208C93.2431 16.8969 93.1043 16.7965 93.1043 16.5957V15.1152C93.0977 15.0236 93.123 14.9325 93.1758 14.8572C93.2286 14.7819 93.3059 14.7268 93.3946 14.7012C93.8312 14.5434 94.2933 14.4669 94.7578 14.4754C95.2209 14.4346 95.6858 14.5322 96.0928 14.7558C96.4999 14.9793 96.8305 15.3185 97.0423 15.73C97.4489 15.3212 97.935 14.9991 98.4711 14.7834C99.0071 14.5676 99.5818 14.4628 100.16 14.4754ZM98.1909 21.2129C98.416 21.4467 98.6863 21.6328 98.9857 21.7599C99.285 21.887 99.6072 21.9525 99.9327 21.9525C100.258 21.9525 100.58 21.887 100.88 21.7599C101.179 21.6328 101.449 21.4467 101.675 21.2129C102.149 20.6873 102.398 19.9986 102.369 19.2933C102.402 18.5873 102.152 17.8971 101.675 17.3736C101.449 17.1398 101.179 16.9538 100.88 16.8266C100.58 16.6995 100.258 16.634 99.9327 16.634C99.6072 16.634 99.285 16.6995 98.9857 16.8266C98.6863 16.9538 98.416 17.1398 98.1909 17.3736C97.7316 17.9063 97.4926 18.5923 97.522 19.2933C97.4963 19.9937 97.7349 20.6783 98.1909 21.2129Z" fill="#1E1B1B"/>
<path d="M111.115 24.2118C109.982 24.2581 108.859 23.9887 107.872 23.4339C107.476 23.1968 107.138 22.874 106.885 22.4895C106.631 22.1051 106.468 21.6689 106.407 21.2132C106.407 20.9622 106.496 20.8368 106.774 20.8368H108.629C108.717 20.8402 108.803 20.8678 108.876 20.9165C108.95 20.9652 109.008 21.0331 109.045 21.1128C109.311 21.7903 110.005 22.1291 111.115 22.1291C111.503 22.1467 111.889 22.0691 112.239 21.9032C112.36 21.849 112.463 21.7632 112.539 21.6549C112.615 21.5466 112.659 21.42 112.668 21.2885C112.668 20.9622 112.466 20.7364 112.062 20.5858C111.583 20.4273 111.088 20.3221 110.585 20.2722C109.99 20.2052 109.4 20.1004 108.818 19.9585C108.253 19.8312 107.738 19.5384 107.341 19.1179C107.108 18.832 106.936 18.5015 106.836 18.1467C106.737 17.792 106.711 17.4207 106.762 17.0559C106.813 16.6911 106.939 16.3406 107.132 16.0262C107.325 15.7118 107.581 15.4403 107.884 15.2284C108.794 14.6523 109.861 14.3717 110.939 14.4254C111.982 14.3904 113.014 14.6468 113.918 15.1657C114.282 15.3707 114.595 15.654 114.836 15.9947C115.076 16.3355 115.236 16.7252 115.306 17.1355C115.306 17.3864 115.192 17.5119 114.965 17.5119H113.097C113.018 17.5165 112.94 17.4975 112.873 17.4572C112.805 17.4169 112.751 17.3572 112.718 17.2861C112.594 16.9889 112.359 16.7508 112.062 16.6211C111.728 16.4471 111.354 16.3608 110.977 16.3702C110.607 16.3502 110.238 16.4235 109.904 16.5835C109.786 16.6286 109.685 16.7076 109.613 16.8105C109.541 16.9134 109.501 17.0353 109.5 17.1606C109.508 17.3322 109.571 17.4967 109.68 17.6299C109.789 17.7631 109.938 17.8581 110.106 17.9009C110.59 18.0824 111.094 18.2087 111.608 18.2773C112.198 18.3545 112.784 18.4634 113.362 18.6035C113.928 18.7307 114.442 19.0235 114.839 19.4441C115.051 19.6758 115.215 19.947 115.321 20.242C115.427 20.537 115.474 20.8501 115.457 21.163C115.468 21.5967 115.366 22.0258 115.16 22.4084C114.954 22.7911 114.652 23.1141 114.284 23.3461C113.34 23.9479 112.235 24.2499 111.115 24.2118V24.2118Z" fill="#1E1B1B"/>
<path d="M128.799 23.5841C128.806 23.6287 128.804 23.6742 128.793 23.718C128.783 23.7618 128.763 23.8031 128.736 23.8393C128.709 23.8755 128.675 23.906 128.636 23.929C128.597 23.952 128.554 23.9669 128.509 23.9731C128.048 24.1226 127.567 24.203 127.082 24.2114C126.603 24.2608 126.118 24.1863 125.676 23.9951C125.234 23.8038 124.849 23.5024 124.558 23.1199C123.666 23.8819 122.514 24.2728 121.339 24.2114C120.794 24.2364 120.25 24.1477 119.741 23.9511C119.232 23.7545 118.771 23.4542 118.386 23.0697C118.004 22.6668 117.707 22.1913 117.514 21.6717C117.321 21.1521 117.235 20.5992 117.262 20.046V15.1402C117.262 14.9018 117.376 14.7764 117.616 14.7764H119.736C119.976 14.7764 120.09 14.9018 120.09 15.1402V19.6696C120.067 20.2339 120.261 20.7857 120.633 21.2128C120.818 21.4085 121.044 21.5623 121.294 21.664C121.544 21.7658 121.814 21.813 122.084 21.8025C122.361 21.8145 122.637 21.7719 122.897 21.6772C123.157 21.5824 123.395 21.4374 123.599 21.2504C123.791 21.0534 123.941 20.8193 124.038 20.5624C124.136 20.3056 124.18 20.0316 124.167 19.7574V15.1402C124.167 14.9018 124.28 14.7764 124.52 14.7764H126.666C126.906 14.7764 127.019 14.9018 127.019 15.1402V21.0497C127.019 21.539 127.234 21.7774 127.65 21.7774C127.846 21.7849 128.041 21.7638 128.231 21.7147C128.279 21.7014 128.329 21.699 128.377 21.7077C128.426 21.7164 128.472 21.736 128.513 21.7649C128.553 21.7939 128.586 21.8315 128.609 21.875C128.632 21.9184 128.645 21.9666 128.647 22.0158L128.799 23.5841Z" fill="#1E1B1B"/>
<path d="M148.855 23.5842C148.866 23.6292 148.867 23.676 148.858 23.7214C148.849 23.7668 148.83 23.8096 148.802 23.8468C148.774 23.884 148.739 23.9146 148.698 23.9365C148.657 23.9583 148.611 23.9708 148.565 23.9732C148.096 24.1248 147.606 24.2052 147.113 24.2116C146.363 24.2501 145.621 24.0381 145.005 23.6093C144.739 23.4257 144.523 23.1796 144.375 22.8929C144.228 22.6062 144.154 22.2877 144.16 21.9657V19.0173C144.186 18.4546 143.997 17.903 143.629 17.474C143.452 17.2779 143.234 17.1233 142.989 17.0213C142.745 16.9194 142.481 16.8726 142.216 16.8843C141.977 16.8754 141.739 16.9204 141.521 17.016C141.302 17.1117 141.108 17.2554 140.954 17.4364C140.62 17.8568 140.45 18.3822 140.474 18.9169V23.5466C140.474 23.785 140.36 23.9105 140.121 23.9105H137.987C137.938 23.9166 137.888 23.9113 137.84 23.8952C137.793 23.8791 137.75 23.8525 137.715 23.8174C137.68 23.7823 137.653 23.7397 137.637 23.6927C137.62 23.6458 137.615 23.5958 137.621 23.5466V19.0173C137.649 18.4608 137.474 17.913 137.129 17.474C136.975 17.2896 136.782 17.1412 136.564 17.0392C136.346 16.9373 136.108 16.8844 135.867 16.8843C135.609 16.874 135.353 16.9178 135.113 17.013C134.874 17.1081 134.658 17.2524 134.479 17.4364C134.118 17.8434 133.932 18.375 133.961 18.9169V23.5466C133.967 23.5958 133.962 23.6458 133.946 23.6927C133.929 23.7397 133.903 23.7823 133.867 23.8174C133.832 23.8525 133.789 23.8791 133.742 23.8952C133.695 23.9113 133.645 23.9166 133.595 23.9105H131.538C131.298 23.9105 131.184 23.785 131.184 23.5466V17.6371C131.199 17.5365 131.19 17.4338 131.158 17.3373C131.126 17.2407 131.071 17.153 130.999 17.081C130.927 17.0091 130.838 16.955 130.741 16.923C130.644 16.8911 130.541 16.8821 130.44 16.8969H130.023C129.745 16.8969 129.606 16.7965 129.606 16.5958V15.1152C129.6 15.0236 129.625 14.9326 129.678 14.8572C129.731 14.7819 129.808 14.7268 129.897 14.7012C130.333 14.5434 130.795 14.4669 131.26 14.4754C131.706 14.4376 132.153 14.526 132.551 14.7302C132.948 14.9344 133.28 15.2463 133.507 15.6297C133.932 15.2285 134.437 14.9189 134.989 14.7203C135.54 14.5217 136.127 14.4383 136.713 14.4754C137.281 14.4478 137.849 14.5538 138.368 14.7849C138.888 15.016 139.346 15.3655 139.704 15.8053C140.122 15.354 140.635 15.0006 141.207 14.7706C141.779 14.5406 142.395 14.4398 143.011 14.4754C143.562 14.4497 144.112 14.538 144.627 14.7345C145.142 14.931 145.61 15.2316 146.002 15.6171C146.386 16.0192 146.683 16.4946 146.876 17.0144C147.069 17.5341 147.154 18.0875 147.126 18.6409V21.0624C147.126 21.5391 147.34 21.7775 147.744 21.7775C147.94 21.7866 148.136 21.7654 148.325 21.7148C148.586 21.7148 148.724 21.8152 148.741 22.0159L148.855 23.5842Z" fill="#1E1B1B"/>
<path d="M0.850749 13.1456C1.78195 9.42507 3.9386 6.12121 6.9773 3.76006C10.016 1.3989 13.762 0.116211 17.6189 0.116211C21.4758 0.116211 25.2219 1.3989 28.2606 3.76006C31.2993 6.12121 33.4559 9.42507 34.3871 13.1456H32.8725C30.3174 13.1082 27.8147 13.8672 25.7159 15.3161C25.5948 15.4033 25.4683 15.4829 25.3372 15.5545H25.1605C25.0295 15.4829 24.903 15.4033 24.7819 15.3161C22.6644 13.9008 20.1706 13.1448 17.6189 13.1448C15.0673 13.1448 12.5735 13.9008 10.456 15.3161C10.3349 15.4033 10.2084 15.4829 10.0774 15.5545H9.90065C9.76959 15.4829 9.64312 15.4033 9.52199 15.3161C7.42314 13.8672 4.92045 13.1082 2.36538 13.1456H0.850749ZM30.1462 21.0123C30.9237 20.4104 31.8873 20.0955 32.8725 20.1215H34.9046V16.094H32.8725C31.1373 16.0732 29.4417 16.61 28.0383 17.6247C27.2486 18.2035 26.2932 18.5157 25.312 18.5157C24.3308 18.5157 23.3754 18.2035 22.5857 17.6247C21.1466 16.629 19.4354 16.0952 17.682 16.0952C15.9287 16.0952 14.2174 16.629 12.7784 17.6247C11.9887 18.2035 11.0333 18.5157 10.0521 18.5157C9.07094 18.5157 8.11553 18.2035 7.32578 17.6247C5.90506 16.5971 4.1852 16.0595 2.42849 16.094H0.333252V20.1215H2.36538C3.35053 20.0955 4.31418 20.4104 5.09171 21.0123C6.52809 22.0087 8.23746 22.543 9.989 22.543C11.7405 22.543 13.4499 22.0087 14.8863 21.0123C15.6648 20.4123 16.6278 20.0976 17.6126 20.1215C18.5981 20.0934 19.5624 20.4085 20.339 21.0123C21.778 22.0081 23.4892 22.5419 25.2426 22.5419C26.9959 22.5419 28.7072 22.0081 30.1462 21.0123V21.0123ZM30.1462 28.2141C30.9237 27.6122 31.8873 27.2973 32.8725 27.3233H34.9046V23.2958H32.8725C31.1373 23.2749 29.4417 23.8118 28.0383 24.8265C27.2486 25.4053 26.2932 25.7175 25.312 25.7175C24.3308 25.7175 23.3754 25.4053 22.5857 24.8265C21.1466 23.8308 19.4354 23.297 17.682 23.297C15.9287 23.297 14.2174 23.8308 12.7784 24.8265C11.9887 25.4053 11.0333 25.7175 10.0521 25.7175C9.07094 25.7175 8.11553 25.4053 7.32578 24.8265C5.90506 23.7989 4.1852 23.2613 2.42849 23.2958H0.333252V27.3233H2.36538C3.35053 27.2973 4.31418 27.6122 5.09171 28.2141C6.52809 29.2105 8.23746 29.7448 9.989 29.7448C11.7405 29.7448 13.4499 29.2105 14.8863 28.2141C15.6648 27.614 16.6278 27.2994 17.6126 27.3233C18.5981 27.2952 19.5624 27.6103 20.339 28.2141C21.778 29.2099 23.4892 29.7436 25.2426 29.7436C26.9959 29.7436 28.7072 29.2099 30.1462 28.2141V28.2141Z" fill="#1E1B1B"/>
</svg>
